<?xml version="1.0" encoding="UTF-8" standalone="no"?>
<!-- Created with Inkscape (http://www.inkscape.org/) -->

<svg
   width="165.27698mm"
   height="191.07912mm"
   viewBox="0 0 165.27698 191.07912"
   version="1.1"
   id="svg1"
   sodipodi:docname="KALAAILOGO.svg"
   inkscape:version="1.4.3 (0d15f75, 2025-12-25)"
   xmlns:inkscape="http://www.inkscape.org/namespaces/inkscape"
   xmlns:sodipodi="http://sodipodi.sourceforge.net/DTD/sodipodi-0.dtd"
   xmlns="http://www.w3.org/2000/svg"
   xmlns:svg="http://www.w3.org/2000/svg">
  <sodipodi:namedview
     id="namedview1"
     pagecolor="#ffffff"
     bordercolor="#000000"
     borderopacity="0.25"
     inkscape:showpageshadow="2"
     inkscape:pageopacity="0.0"
     inkscape:pagecheckerboard="0"
     inkscape:deskcolor="#d1d1d1"
     inkscape:document-units="mm"
     inkscape:zoom="0.68506594"
     inkscape:cx="362.7388"
     inkscape:cy="415.28849"
     inkscape:window-width="1920"
     inkscape:window-height="974"
     inkscape:window-x="-11"
     inkscape:window-y="-11"
     inkscape:window-maximized="1"
     inkscape:current-layer="layer1" />
  <defs
     id="defs1" />
  <g
     inkscape:label="Kiht 1"
     inkscape:groupmode="layer"
     id="layer1"
     transform="translate(-22.577418,-59.003226)">
    <path
       style="fill:none;fill-rule:evenodd;stroke:#ffffff;stroke-width:4.93501;stroke-miterlimit:2.1"
       d="m 23.985503,207.84243 c 4.138117,-2.8756 -0.667584,0.24881 3.899917,-2.04495 0.488099,-0.24512 0.844643,-0.71739 1.345588,-0.93505 0.96488,-0.41925 2.39538,-0.33432 3.314541,-0.97304 0.528597,-0.36733 0.854328,-0.9972 1.414009,-1.31516 0.931718,-0.52932 3.408857,-0.66365 4.523286,-1.14789 0.756044,-0.32851 1.429167,-0.8256 2.174225,-1.17832 0.780555,-0.36952 1.678368,-0.42368 2.485905,-0.72977 0.680978,-0.25813 1.135894,-0.93514 1.79412,-1.24675 1.363506,-0.64549 2.32554,-0.33637 3.626225,-0.52451 2.017325,-0.2918 1.544422,-1.0349 3.071281,-1.80168 0.984081,-0.4942 2.418594,-0.35046 3.314543,-0.97305 1.335687,-0.92817 -0.47936,-0.59747 1.414011,-1.31516 0.380676,-0.14429 0.828066,-0.0305 1.208741,-0.17484 0.44455,-0.1685 1.265778,-1.17031 1.794117,-1.24674 0.957483,-0.13849 0.609364,0.57424 1.58885,-0.10641 0.381177,-0.26488 0.584304,-0.7386 0.965481,-1.00348 0.979486,-0.68065 0.63137,0.0321 1.58885,-0.10642 0.180191,-0.0261 0.268339,-0.28562 0.448526,-0.31168 0.382239,-0.0553 0.823164,0.42566 1.14032,0.20527 0.598042,-0.41558 -0.565086,-0.49415 0.448531,-0.31169 2.015834,0.36287 1.361465,-1.92457 3.139703,-2.18178 0.382239,-0.0553 0.769742,0.31405 1.14032,0.20526 0.663279,-0.19471 0.732099,-1.21652 1.414009,-1.31515 0.254823,-0.0368 0.50332,0.154 0.760215,0.13684 0.968454,-0.0649 0.692659,-0.38335 1.277164,-0.55494 0.260339,-0.0764 1.266064,-0.57092 1.588848,-0.10642 0.07347,0.10569 -0.0813,0.25201 -0.06842,0.38011 0.575696,5.72631 0.397605,-0.15421 0.07599,3.9379 -0.194065,2.4692 -0.02791,4.97744 -0.15971,7.4273 -0.05532,1.02842 -0.492051,2.01243 -0.547379,3.04085 -0.09745,1.81137 0.124532,1.65056 0.59294,3.24612 0.373551,1.27245 0.0172,4.81705 0.04556,6.28697 0.0056,0.28782 0.258727,0.54119 0.243262,0.82865 -0.04841,0.89987 -0.53918,1.76158 -0.478957,2.66074 0.158743,2.37012 -0.245402,4.74617 -0.09128,7.04718 0.06842,1.02158 -1.08294,2.88347 -0.684226,3.80107 0.145112,0.33396 0.478257,0.5631 0.623367,0.89706 0.153917,0.35422 -0.231077,0.75497 -0.205268,1.14032 0.133297,1.99019 -0.284365,3.75977 -0.646229,5.77003 -0.114962,0.63864 -0.525436,1.9668 -0.478957,2.66074 0.01924,0.28722 0.237709,0.54082 0.243261,0.82863 0.02973,1.54091 -0.617604,3.43097 -0.889493,4.94139"
       id="path5" />
    <path
       style="fill:none;fill-rule:evenodd;stroke:#ffffff;stroke-width:4.93501;stroke-miterlimit:2.1"
       d="m 74.623569,185.95628 c 5.815286,-5.66656 -0.25716,0.96236 3.238553,-4.91095 1.237089,-2.0785 2.659637,-4.0529 4.204037,-5.91443 1.865372,-2.24843 1.954802,-1.3871 3.656657,-2.87359 0.931266,-0.81341 0.205266,-1.14031 1.550855,-2.07537 0.47279,-0.32855 1.228881,-0.10187 1.657269,-0.48652 0.729523,-0.65504 0.927216,-1.76099 1.619278,-2.45548 0.771079,-0.77378 1.933791,-1.08291 2.691175,-1.87011 0.564524,-0.58674 0.683362,-1.49157 1.170748,-2.14379 0.385315,-0.51563 1.028699,-0.79953 1.414011,-1.31516 0.154124,-0.20625 -0.03265,-0.56639 0.136844,-0.76021 0.66188,-0.75691 1.613935,-1.21396 2.311068,-1.93853 0.38585,-0.40103 1.473642,-2.10213 1.999386,-2.38705 0.50618,-0.27434 1.20459,-0.13079 1.65727,-0.48653 0.81609,-0.64132 1.30741,-1.61345 1.99939,-2.38706 0.85828,-0.95953 1.98056,-1.6612 2.82801,-2.63031 0.53598,-0.61293 0.68337,-1.49157 1.17075,-2.1438 1.37854,-1.84478 0.44853,-0.31169 2.24265,-1.55842 0.70919,-0.49282 0.98237,-1.42527 1.55085,-2.07537 0.32418,-0.37071 1.08623,-0.52009 1.34559,-0.93505 0.28133,-0.45012 0.33606,-1.02681 0.6538,-1.45201 0.38531,-0.51563 1.01326,-0.81144 1.41401,-1.31516 0.37423,-0.47038 2.32415,-3.56342 3.17014,-4.53085 0.6111,-0.69884 1.20553,-1.42765 1.93095,-2.00695 0.36272,-0.28965 0.97161,-0.20553 1.27717,-0.55494 0.25423,-0.29074 0.0202,-0.80136 0.20527,-1.14032 0.0617,-0.11299 0.30304,0.17155 0.3801,0.0684 0.58325,-0.78052 -0.0938,-1.43968 0.79064,-2.21221 0.29974,-1.2384 1.49729,-0.70792 2.17423,-1.17832 0.0901,-0.0626 0.3482,-1.23965 0.6538,-1.452 0.10568,-0.0734 0.25657,0.10471 0.3801,0.0684 0.93988,-0.27593 2.15366,-1.0101 2.69118,-1.87011 0.55044,-0.88069 -0.004,-2.59147 0.6158,-3.42096 0.74925,-1.00264 1.56022,-2.05138 2.51634,-3.07884 2.76991,-2.97666 5.98475,-5.56037 8.6209,-8.65117 0.56041,-0.65708 0.97064,-1.43571 1.55086,-2.07538 0.32134,-0.35427 1.3493,-1.3268 1.79411,-1.24673"
       id="path6" />
    <path
       style="fill:none;fill-rule:evenodd;stroke:#ffffff;stroke-width:4.93501;stroke-miterlimit:2.1"
       d="m 44.025232,151.01657 c 0.156515,0.0282 1.021592,0.28778 1.14032,0.20527 0.105712,-0.0734 -0.03729,-0.30667 0.06842,-0.3801 0.211441,-0.14694 0.506811,0.0912 0.760215,0.13684 1.997362,0.35955 3.7831,0.77935 5.770022,0.64623 2.4529,-0.16429 6.127626,1.3971 8.742452,1.57372 1.093952,0.0739 3.414306,-0.10229 4.386439,-0.38767 0.349386,-0.10257 0.538857,-0.55794 0.897061,-0.62337 1.044326,-0.19076 2.118465,-0.14189 3.177698,-0.21284 0.908284,-0.0608 1.819599,0.13577 2.729167,0.0989 1.393935,-0.0566 3.011372,-0.48056 4.386441,-0.38767 4.0155,0.27123 7.907454,0.92791 11.988574,0.98077 4.973959,0.0644 9.948673,-0.0405 14.923009,-0.0607 1.29235,1.54072 2.8939,2.86789 3.87706,4.62214 0.85606,1.5275 0.1377,3.53494 0.63093,5.21508 0.34211,1.16533 1.04761,2.20751 1.35315,3.38296 0.47544,1.82904 -0.30147,4.00697 -0.26613,5.83844 0.0294,1.52401 -0.0546,5.21125 0.0456,6.28697 0.22626,2.42991 1.07861,4.89746 1.42914,7.32089 0.14613,1.01027 1.04158,1.53431 1.10989,2.55433 0.0172,0.25689 -0.20936,0.51316 -0.13684,0.76021 0.24326,0.82864 0.65758,0.707 0.93505,1.34558 0.36197,0.83306 0.12397,1.64863 0.34968,2.41749 0.0811,0.27622 0.61071,0.24074 0.6918,0.51696 0.0725,0.24704 -0.15401,0.50332 -0.13685,0.76021 0.0544,0.81239 0.15604,1.62662 0.34968,2.41748 0.11039,0.45086 0.47154,0.82055 0.55494,1.27717 0.28293,1.54893 0.27139,3.55921 0.25083,5.14665 -0.002,0.19392 -0.30848,0.99179 -0.20526,1.14032 0.0734,0.10568 0.30663,-0.0373 0.3801,0.0684 0.13148,0.18922 -0.11424,1.6186 0.038,1.96895 0.14511,0.33398 0.59903,0.53375 0.62336,0.89707 0.0258,0.38535 -0.2311,0.75496 -0.20526,1.14031 0.0243,0.36332 0.57123,0.53668 0.62336,0.89706 0.11328,0.78311 -0.70134,1.90321 -0.47896,2.66075 0.0513,0.17469 0.29952,0.26687 0.31169,0.44853 0.0344,0.5138 -0.56755,1.09755 -0.27369,1.52042 0.0734,0.10568 0.30664,-0.0373 0.3801,0.0684 0.14694,0.21145 -0.28377,0.54878 -0.13684,0.76023 0.0734,0.10568 0.30664,-0.0373 0.38011,0.0684 0.10879,0.15656 -0.34885,1.03303 -0.20527,1.14031 0.20625,0.15413 0.65761,-0.0993 0.76021,0.13685 0.20523,0.47229 -0.18246,1.01361 -0.27369,1.52043"
       id="path7"
       sodipodi:nodetypes="cscscssssssscsssssscsssscsssssssssssssssssc" />
    <path
       style="fill:none;fill-rule:evenodd;stroke:#ffffff;stroke-width:4.93501;stroke-miterlimit:2.1"
       d="m 75.353405,116.61158 c 0.156514,0.0282 1.021591,0.28778 1.140319,0.20526 0.105712,-0.0734 -0.03729,-0.30666 0.06842,-0.3801 0.211441,-0.14693 0.506811,0.0912 0.760215,0.13685 1.997363,0.35954 3.783101,0.77935 5.770022,0.64623 2.4529,-0.16429 6.127626,1.39709 8.742452,1.57371 1.093953,0.0739 3.414307,-0.10228 4.386439,-0.38766 0.349386,-0.10258 0.538857,-0.55794 0.897061,-0.62338 1.044327,-0.19075 2.118465,-0.14188 3.177697,-0.21283 0.90829,-0.0608 1.8196,0.13577 2.72917,0.0989 1.39393,-0.0566 3.01137,-0.48057 4.38644,-0.38768 4.01549,0.27123 7.90742,0.92791 11.98852,0.98077 4.97396,0.0644 9.94868,-0.0405 14.92301,-0.0607 1.29235,1.54071 2.8939,2.86789 3.87706,4.62214 0.85607,1.5275 0.1377,3.53494 0.63093,5.21508 0.34211,1.16533 1.04762,2.2075 1.35315,3.38295 0.47544,1.82904 -0.30147,4.00698 -0.26612,5.83845 0.0294,1.52401 -0.0546,5.21125 0.0456,6.28697 0.22625,2.42991 1.0786,4.89746 1.42914,7.32088 0.14613,1.01028 1.04157,1.53432 1.10989,2.55434 0.0172,0.25689 -0.20937,0.51315 -0.13685,0.76021 0.24327,0.82863 0.65759,0.707 0.93506,1.34558 0.36197,0.83305 0.12397,1.64863 0.34967,2.41749 0.0811,0.27621 0.61071,0.24074 0.6918,0.51695 0.0725,0.24705 -0.154,0.50332 -0.13684,0.76022 0.0544,0.81239 0.15603,1.62662 0.34967,2.41748 0.1104,0.45085 0.47154,0.82054 0.55495,1.27716 0.28292,1.54894 0.27139,3.55921 0.25083,5.14666 -0.002,0.19392 -0.30849,0.99179 -0.20527,1.14031 0.0734,0.10568 0.30663,-0.0373 0.3801,0.0684 0.13149,0.18922 -0.11424,1.61861 0.038,1.96896 0.14511,0.33397 0.59904,0.53375 0.62337,0.89707 0.0258,0.38535 -0.23111,0.75496 -0.20527,1.14031 0.0243,0.36332 0.57124,0.53668 0.62337,0.89706 0.11327,0.78311 -0.70134,1.90321 -0.47896,2.66075 0.0513,0.17469 0.29952,0.26687 0.31169,0.44853 0.0344,0.5138 -0.56756,1.09755 -0.27369,1.52042 0.0734,0.10568 0.30663,-0.0373 0.3801,0.0684 0.14693,0.21145 -0.28377,0.54878 -0.13685,0.76022 0.0734,0.10568 0.30664,-0.0373 0.38011,0.0684 0.1088,0.15657 -0.34885,1.03303 -0.20526,1.14032 0.20624,0.15412 0.6576,-0.0993 0.76021,0.13684 0.20522,0.4723 -0.18246,1.01362 -0.27369,1.52043"
       id="path7-8"
       sodipodi:nodetypes="cscscssssssscsssssscsssscsssssssssssssssssc" />
    <path
       style="fill:none;fill-rule:evenodd;stroke:#ffffff;stroke-width:6.43263;stroke-miterlimit:2.1"
       d="m 130.09306,90.364547 c 0.64118,0.283501 1.75934,1.656296 1.9235,0.850503 0.16415,-0.805793 -2.40908,-1.483569 -1.9235,-0.850503 7.88152,10.275293 3.42328,2.896918 8.01084,8.021858 1.16637,1.302972 2.23633,2.745605 3.35451,4.118395 2.58413,3.17258 6.0815,5.72534 8.97258,8.4471 0.91378,0.86028 1.17683,2.42996 2.2989,3.12461 0.96689,0.59858 1.96444,0.40889 2.88524,1.27576 0.12435,0.11708 -0.0306,0.45139 0.0939,0.56853 0.27817,0.26187 0.68357,0.16338 0.96174,0.42524 0.27818,0.26189 0.34348,0.80353 0.62165,1.06543 0.12436,0.11709 0.29059,-0.13503 0.43396,-0.0716 0.88461,0.39114 1.97117,2.23936 2.73284,3.05297 0.92782,0.99108 1.79967,2.07061 2.73285,3.05296 0.50692,0.53362 1.16368,0.84285 1.58339,1.49066 0.53276,0.82228 0.83812,1.84407 1.33718,2.69936 0.18534,0.31765 -0.1016,1.18481 0.18771,1.13705 0.14464,-0.0239 -0.0626,-0.37901 -0.0939,-0.56851 -0.21899,-1.32658 -0.43798,-2.65313 -0.65698,-3.9797 -0.49393,-2.99197 -0.2891,-5.76897 -0.10601,-8.7428 0.10321,-1.67634 -0.23982,-5.72738 0.17557,-7.03724 0.72926,-2.29957 2.16876,-4.075 2.96693,-6.32999 0.53066,-1.49918 0.5001,-3.305953 0.98495,-4.834778 0.30663,-0.966895 1.01098,-1.621975 1.36035,-2.56065 0.72025,-1.935112 1.12105,-4.070747 1.66511,-6.115092 9.3554,-35.153823 -5.08348,16.62007 5.6755,-19.625594 0.34389,-1.158516 0.3751,-2.479457 0.73869,-3.626072 0.34709,-1.094468 2.06307,-2.379261 1.2665,-3.129184 -0.0838,-0.07887 -7.77191,2.981763 -8.39731,3.13833 -0.99691,0.249571 -2.02508,0.334311 -3.03761,0.501463 -1.0946,0.57005 -2.1246,1.350728 -3.28384,1.710157 -5.35276,1.659646 -11.1882,0.965868 -16.396,3.290755 -1.91485,0.854834 -3.08543,3.050063 -5.07813,4.342447 -0.42861,0.277965 -1.92096,-0.110053 -2.16973,0.358188 -0.16031,0.301779 0.29612,0.795204 0.18771,1.137054 -0.45554,1.436502 -1.41816,0.207834 -2.07587,0.926713 -1.06414,1.163122 -1.32005,2.402391 -2.56832,3.344094 -1.27706,0.963422 -2.61439,2.287627 -3.96402,2.990486 -0.26548,0.138257 -0.63712,-0.06894 -0.86788,0.143275 -0.38396,0.353073 -0.69704,1.081463 -1.11412,1.351963 -3.31633,2.150824 1.73869,-2.253748 -1.64192,0.855081"
       id="path9" />
    <path
       style="fill:none;fill-rule:evenodd;stroke:#ffffff;stroke-width:4.93501;stroke-miterlimit:2.1"
       d="m 161.41438,77.102834 c 0.44468,0.482872 0.85116,1.893315 1.33404,1.448639 0.48287,-0.444677 -1.77873,-1.931524 -1.33404,-1.448639 0.88936,0.965756 1.76192,1.947269 2.66807,2.897286 0.17775,0.186265 0.47302,0.662722 0.62453,0.454553 0.0476,-0.0654 -4.37921,-2.788925 -3.2926,-3.351839 0.91447,-0.473751 1.6654,1.21214 2.4981,1.818209"
       id="path10"
       inkscape:transform-center-x="0.8201509"
       inkscape:transform-center-y="-0.093579666" />
    <path
       style="fill:none;fill-rule:evenodd;stroke:#ffffff;stroke-width:4.93501;stroke-miterlimit:2.1"
       d="m 30.511054,74.153444 c -0.904642,2.585072 -1.158648,5.383993 -1.158648,8.110535 0,2.481146 0.314767,4.837435 0.386215,7.3381 0.136041,4.761386 -0.153574,9.529135 0,14.289991 0.155316,4.81481 0.876144,10.16313 0.386215,15.06242 -0.05282,0.52816 -0.311147,1.01939 -0.386215,1.54486 -0.08512,0.59581 0.284922,2.13366 0,2.70351 -0.05757,0.11515 -0.295185,-0.091 -0.386215,0 -0.271266,0.27126 0.122256,6.74625 0,7.72432 -0.08142,0.65137 -0.304794,1.2797 -0.386217,1.93108 -0.26896,2.15168 0.306546,4.41984 0,6.56567 -0.426927,2.98848 -0.386215,0.21151 -0.386215,1.54486"
       id="path15" />
    <path
       style="fill:none;fill-rule:evenodd;stroke:#ffffff;stroke-width:4.93501;stroke-miterlimit:2.1"
       d="m 30.511054,103.89207 c 1.14242,7.80055 4.789791,13.44174 8.110532,20.08322 0.514956,1.02991 1.180735,1.99734 1.544862,3.08973 0.236607,0.70981 0.16523,3.36545 0.386218,3.47594 0.230293,0.11515 0.514953,0 0.77243,0 0.257479,0.12874 0.532913,0.22654 0.772432,0.38622 0.932408,0.6216 -0.128738,0.12874 0.386218,1.15864 0.05757,0.11515 0.271068,-0.0576 0.386215,0 1.00875,0.50438 0.628562,0.77244 1.93108,0.77244"
       id="path16" />
    <path
       style="fill:none;fill-rule:evenodd;stroke:#ffffff;stroke-width:4.93501;stroke-miterlimit:2.1"
       d="m 29.738621,107.36801 c 1.496169,-4.48851 0.235733,-1.46441 4.63459,-7.724319 6.385944,-9.087689 10.872981,-16.50597 16.221067,-26.648894 3.84407,-7.29048 2.70351,-8.084608 2.70351,-4.63459"
       id="path17" />
    <path
       style="fill:none;fill-rule:evenodd;stroke:#ffffff;stroke-width:4.93501;stroke-miterlimit:2.1"
       d="m 52.525358,121.27178 c -0.708819,-10.66991 3.928745,-16.10826 8.110532,-24.717814 0.658347,-1.355423 1.156605,-2.792407 1.544862,-4.248375 0.132686,-0.497567 0,-1.029909 0,-1.544865 0,-0.128738 0,-0.514953 0,-0.386215 0,1.029909 0,2.059818 0,3.089728 0,0.257476 -0.07179,1.019698 0,0.772432 6.977425,-24.03335 1.631252,-4.68031 4.248375,-17.765932 0.591389,-2.956946 1.544865,-5.506468 1.544865,-8.496747 0,-0.128738 0,0.257477 0,0.386215 0,0.643694 0,1.287386 0,1.93108 0,2.832248 0,5.664499 0,8.496747 0,3.419464 0.212143,6.728852 1.158648,10.041615 0.190457,0.666602 0.604287,1.258498 0.772429,1.931077 0.156121,0.624475 -0.203551,1.320419 0,1.93108 0.05758,0.17272 0.342062,0.209587 0.386218,0.386215 0.09367,0.374684 -0.05462,0.776314 0,1.15865 -0.399388,0.996601 0.612751,1.518891 0.77243,2.317295 0.84773,4.238644 0.386218,8.816324 0.386218,13.131344 0,1.12897 -0.139677,2.35854 0,3.47594 0.11291,0.90329 1.029909,2.05982 0.386214,2.70351 -0.09103,0.091 -0.257476,0 -0.386214,0"
       id="path18" />
    <path
       style="fill:none;fill-rule:evenodd;stroke:#ffffff;stroke-width:4.93501;stroke-miterlimit:2.1"
       d="m 58.70481,105.05071 c 4.954045,0.795 9.796634,-0.77243 14.676204,-0.77243"
       id="path19" />
    <path
       style="fill:none;fill-rule:evenodd;stroke:#ffffff;stroke-width:4.93501;stroke-miterlimit:2.1"
       d="m 78.401819,70.291288 c 0.288515,4.739245 -0.394205,9.559536 0,14.289987 1.39533,16.743965 1.158647,1.104101 1.158647,13.131339 0,2.317296 0,4.634586 0,6.951886 0,0.38621 -0.273095,0.88555 0,1.15864 0.15335,0.15335 2.40533,0 2.703513,0 4.704538,0 9.240697,-0.79995 13.903766,-1.15864 1.39854,-0.10758 2.86079,-0.38622 4.248385,-0.38622 0.12874,0 -0.29519,0.091 -0.38622,0 -0.514955,-0.51496 0.64369,-0.38622 -0.386215,-0.38622"
       id="path20" />
    <path
       style="fill:none;fill-rule:evenodd;stroke:#ffffff;stroke-width:4.93501;stroke-miterlimit:2.1"
       d="m 106.20937,106.59557 c 0.12874,-0.64369 0.31372,-1.27865 0.38621,-1.93108 0.14649,-1.3184 0.006,-2.98166 0.38622,-4.24836 1.06948,-3.564925 3.07436,-6.905779 4.24837,-10.427835 0.60016,-1.800458 0.13668,-3.27405 0.38622,-5.020805 0.0751,-0.525468 0.25748,-1.029909 0.38622,-1.544865 0.12873,-1.416124 0.22918,-2.835106 0.38621,-4.248375 0.29193,-2.627357 1.54487,-4.559787 1.54487,-6.951885 0,-0.90117 0,-1.802339 0,-2.703509 0,-0.128739 0,-0.514956 0,-0.386218 0,2.205239 1.6146,3.416059 2.31729,5.407022 1.01677,2.880855 1.30338,7.627562 2.70351,10.42783 0.28787,0.575736 0.91959,0.947208 1.15865,1.544862 0.48759,1.218981 0.35726,2.61665 0.77243,3.86216 0.79754,2.392625 1.54486,3.973163 1.54486,6.56567 0,1.802339 0,3.604688 0,5.407028 0,0.12874 -0.11514,0.32864 0,0.3862 0.2303,0.11515 0.51496,0 0.77243,0"
       id="path21" />
    <path
       style="fill:none;fill-rule:evenodd;stroke:#ffffff;stroke-width:4.93501;stroke-miterlimit:2.1"
       d="m 110.84396,91.919376 c 7.94129,0 -3.61163,-0.152778 10.81404,1.158648 1.66673,0.151518 3.3472,0 5.0208,0"
       id="path22" />
    <path
       style="fill:none;fill-rule:evenodd;stroke:#ffffff;stroke-width:4.93501;stroke-miterlimit:2.1"
       d="m 100.02991,248.3368 c 2.73486,-2.73248 6.74181,-4.29385 10.04161,-6.17945 0.65177,-0.37244 1.3544,-0.67809 1.93108,-1.15865 0.22115,-0.18429 0.12874,-0.6437 0.38622,-0.77243 5.13876,-2.56939 0.70627,0.9026 4.24837,-1.93108 1.35247,-1.08198 2.47656,-2.43675 3.86216,-3.47595 0.46059,-0.34544 1.06582,-0.45307 1.54486,-0.77243 2.08354,-1.38902 -0.266,-0.12021 1.15865,-1.54486 0.83928,-0.83927 1.78234,-1.56884 2.70351,-2.3173 1.13922,-0.92561 2.43802,-1.66558 3.47595,-2.70351 0.65644,-0.65644 0.95055,-1.60412 1.54486,-2.31729 0.93244,-1.11892 1.99359,-2.13061 3.08973,-3.08973 2.23391,-1.95467 4.5976,-3.93024 6.56567,-6.17945 0.87029,-0.73276 1.21036,-1.86268 1.93108,-2.70351 0.94788,-1.10587 2.31777,-1.85461 3.08972,-3.08973 0.28133,-0.45012 0.17712,-1.05698 0.38622,-1.54486 0.36569,-0.85329 1.12969,-1.48696 1.54486,-2.3173 0.74621,-1.49241 1.78813,-3.43332 2.3173,-5.02081 0.0814,-0.24426 -0.0814,-0.52816 0,-0.77243 0.85955,-2.57866 3.59251,-4.32842 4.24837,-6.95188 0.27198,-1.08792 0.42854,-2.05806 0.77243,-3.08973 0.23406,-0.70216 -0.0923,-2.05718 0,-2.70351 0.20356,-1.42488 0.39372,-2.85975 0.77244,-4.24837 0.12213,-0.44782 0.65985,-0.70834 0.77243,-1.15865 0.47637,-1.90548 0,-6.3981 0,-8.49675 0,-1.80234 0,-3.60468 0,-5.40702 0,-0.77244 0,-1.54487 0,-2.3173 0,-0.38621 0.27309,-1.43174 0,-1.15865 -1.01312,1.01312 -0.12019,9.2798 0,9.6554 0.64947,2.02962 2.04928,3.76514 2.70351,5.79324 1.21671,3.77179 0.92605,6.74274 1.93108,10.42782 0.39647,1.45376 1.14838,2.79463 1.54486,4.24838 0.98267,3.60314 1.45413,7.50387 1.93108,11.20026 0.59879,4.64061 1.41436,9.25331 1.93108,13.90377 0.18536,1.66828 0.16911,3.35636 0.38622,5.02081 0.50694,3.88656 0.80655,3.0106 1.15864,6.17945 0.31474,2.83265 -0.26196,3.62709 -0.77243,6.17946 -0.39876,1.99381 0,4.59377 0,6.56567 0,0.86173 0.47253,4.33468 -1.15865,2.7035"
       id="path23" />
    <path
       style="fill:none;fill-rule:evenodd;stroke:#ffffff;stroke-width:5.30385;stroke-miterlimit:2.1"
       d="m 133.23118,221.66253 c 1.35443,-0.12719 2.70918,-0.25203 4.0633,-0.38161 6.62198,-0.63367 13.2381,-1.3122 19.86499,-1.9081 0.44893,-0.0404 0.95061,0.17066 1.35442,0 0.30099,-0.12721 0.17149,-0.60546 0.45148,-0.76324 0.25249,-0.14228 5.68953,-1.14486 6.77215,-1.14486"
       id="path24" />
    <path
       style="fill:none;fill-rule:evenodd;stroke:#ffffff;stroke-width:4.93501;stroke-miterlimit:2.1"
       d="m 168.0039,142.51365 c 0.90525,4.09101 1.49075,8.22618 2.3173,12.35891 0.4698,2.34904 1.64615,5.54621 1.93107,8.11053 0.50064,4.50574 0.86366,9.15665 2.3173,13.51756 1.07878,3.23633 2.39763,6.42046 3.47594,9.65539 0.2731,0.81929 0.88555,1.49801 1.15865,2.3173 0.24426,0.73279 -0.15149,1.55986 0,2.31729 0.40589,2.02947 1.10661,4.1343 1.54486,6.17946 0.90167,4.2078 2.54616,8.17488 3.47594,12.35891 0.22342,1.00538 -0.0855,2.06337 0,3.08972 0.065,0.78038 0.25748,1.54487 0.38622,2.3173 0.12874,1.28738 0.30551,2.57087 0.38622,3.86216 0.15919,2.54705 0,5.16844 0,7.72431 0,2.63289 -0.47188,8.45465 0,10.81405 0.43597,2.17989 0.38621,4.31659 0.38621,6.56567"
       id="path25" />
  </g>
</svg>
