<?xml version="1.0" encoding="UTF-8" standalone="no"?>
<!-- Created with Inkscape (http://www.inkscape.org/) -->

<svg
   width="124.08239mm"
   height="40.972355mm"
   viewBox="0 0 124.08239 40.972355"
   version="1.1"
   id="svg1"
   sodipodi:docname="SuperAI.svg"
   inkscape:version="1.4.2 (f4327f4, 2025-05-13)"
   xmlns:inkscape="http://www.inkscape.org/namespaces/inkscape"
   xmlns:sodipodi="http://sodipodi.sourceforge.net/DTD/sodipodi-0.dtd"
   xmlns="http://www.w3.org/2000/svg"
   xmlns:svg="http://www.w3.org/2000/svg">
  <sodipodi:namedview
     id="namedview1"
     pagecolor="#ffffff"
     bordercolor="#000000"
     borderopacity="0.25"
     inkscape:showpageshadow="2"
     inkscape:pageopacity="0.0"
     inkscape:pagecheckerboard="0"
     inkscape:deskcolor="#d1d1d1"
     inkscape:document-units="mm"
     inkscape:zoom="1.4378367"
     inkscape:cx="423.90071"
     inkscape:cy="131.79522"
     inkscape:window-width="1920"
     inkscape:window-height="1009"
     inkscape:window-x="-8"
     inkscape:window-y="-8"
     inkscape:window-maximized="1"
     inkscape:current-layer="layer1" />
  <defs
     id="defs1" />
  <g
     inkscape:label="Kiht 1"
     inkscape:groupmode="layer"
     id="layer1"
     transform="translate(-50.27321,-116.61907)">
    <path
       style="fill:#ffffff;fill-rule:evenodd;stroke:#ffffff;stroke-width:3;stroke-linecap:butt;stroke-linejoin:miter;stroke-dasharray:none;stroke-opacity:1"
       d="M 63.88094,117.62572 51.385257,131.42967"
       id="path2"
       inkscape:connector-type="polyline"
       inkscape:connector-curvature="0" />
    <path
       style="display:inline;fill:#ffffff;fill-rule:evenodd;stroke:#ffffff;stroke-width:4;stroke-linecap:butt;stroke-linejoin:miter;stroke-dasharray:none;stroke-opacity:1"
       d="M 53.088209,130.24828 67.921681,141.8288"
       id="path3"
       inkscape:connector-type="polyline"
       inkscape:connector-curvature="0" />
    <path
       style="fill:#ffffff;fill-rule:evenodd;stroke:#ffffff;stroke-width:5;stroke-linecap:butt;stroke-linejoin:miter;stroke-dasharray:none;stroke-opacity:1"
       d="M 66.575343,139.56673 53.536794,154.45026"
       id="path4"
       inkscape:connector-type="polyline"
       inkscape:connector-curvature="0" />
    <path
       d="m 82.109401,146.21958 v -3.24692 c -1.660358,2.74536 -3.455866,4.11804 -5.386515,4.11804 -1.187348,0 -2.089927,-0.58955 -2.707729,-1.76864 -0.801223,-1.54868 -1.201834,-3.35252 -1.201834,-5.41155 V 125.6029 H 71.1771 c -0.289598,0 -0.497143,-0.10559 -0.622635,-0.31677 -0.125492,-0.21118 -0.188238,-0.48396 -0.188238,-0.81833 0,-0.31677 0.06275,-0.58075 0.188238,-0.79193 0.125492,-0.21119 0.333037,-0.31678 0.622635,-0.31678 h 2.852535 v 16.55142 c 0,1.44308 0.250984,2.63098 0.752951,3.5637 0.501968,0.93272 1.129428,1.39909 1.882386,1.39909 1.978913,0 3.793721,-1.65427 5.444429,-4.96279 V 125.6029 h -2.244382 c -0.289598,0 -0.497139,-0.10559 -0.622631,-0.31677 -0.125492,-0.21118 -0.188242,-0.48396 -0.188242,-0.81833 0,-0.31677 0.06275,-0.58075 0.188242,-0.79193 0.125492,-0.21119 0.333033,-0.31678 0.622631,-0.31678 h 3.460687 v 20.64307 h 1.028071 c 0.289598,0 0.497146,0.10561 0.622638,0.31679 0.125492,0.19358 0.188234,0.45756 0.188234,0.79193 0,0.31677 -0.06275,0.58075 -0.188234,0.79194 -0.125492,0.21117 -0.33304,0.31676 -0.622638,0.31676 z m 9.049916,-22.86049 v 4.03886 c 0.723995,-1.60146 1.501082,-2.80696 2.331261,-3.61649 0.830179,-0.80954 1.809986,-1.2143 2.939413,-1.2143 1.196998,0 2.302297,0.51036 3.315889,1.53107 1.01359,1.02072 1.79551,2.4462 2.34574,4.27644 0.55989,1.81265 0.83984,3.72209 0.83984,5.72832 0,3.18534 -0.62746,5.91312 -1.88239,8.18333 -1.245269,2.2526 -2.780136,3.37891 -4.6046,3.37891 -2.171977,0 -3.933699,-1.61026 -5.285153,-4.83079 v 13.35728 h 2.953892 c 0.289598,0 0.497146,0.0968 0.622638,0.29038 0.125492,0.21117 0.188234,0.48395 0.188234,0.81833 0,0.31677 -0.06275,0.58074 -0.188234,0.79193 -0.125492,0.21118 -0.33304,0.31677 -0.622638,0.31677 h -5.806427 c -0.289597,0 -0.497139,-0.10561 -0.622631,-0.31677 -0.125492,-0.19358 -0.188241,-0.45756 -0.188241,-0.79193 0,-0.33438 0.06275,-0.60716 0.188241,-0.81833 0.125492,-0.19359 0.333034,-0.29038 0.622631,-0.29038 h 1.636231 V 125.6029 h -1.636231 c -0.289597,0 -0.497139,-0.10559 -0.622631,-0.31677 -0.125492,-0.21118 -0.188241,-0.48396 -0.188241,-0.81833 0,-0.31677 0.06275,-0.58075 0.188241,-0.79193 0.125492,-0.21119 0.333034,-0.31678 0.622631,-0.31678 z m 10.541343,10.7439 c 0,-2.55178 -0.51162,-4.734 -1.53486,-6.54665 -1.013594,-1.83024 -2.254035,-2.74537 -3.72133,-2.74537 -1.476946,0 -2.727044,0.91513 -3.750286,2.74537 -1.023242,1.83025 -1.534867,4.01247 -1.534867,6.54665 0,2.55179 0.511625,4.74281 1.534867,6.57306 1.023242,1.83025 2.27334,2.74537 3.750286,2.74537 1.457638,0 2.698086,-0.90632 3.72133,-2.71897 1.02324,-1.83025 1.53486,-4.03007 1.53486,-6.59946 z m 18.4184,1.2143 h -12.39477 c 0.21237,2.86857 0.86879,5.18277 1.96926,6.94262 1.11012,1.74225 2.48088,2.61339 4.11229,2.61339 0.9074,0 1.85825,-0.27278 2.85253,-0.81833 0.99429,-0.54555 1.80516,-1.26709 2.43262,-2.16462 0.1834,-0.26398 0.34268,-0.39597 0.47783,-0.39597 0.15445,0 0.2896,0.1144 0.40544,0.34317 0.11583,0.21118 0.17376,0.46636 0.17376,0.76554 0,0.29917 -0.0772,0.58955 -0.23168,0.87112 -0.46336,0.87992 -1.28871,1.70705 -2.47606,2.4814 -1.1777,0.75673 -2.38918,1.13509 -3.63444,1.13509 -2.08511,0 -3.82752,-1.24069 -5.22724,-3.72207 -1.39007,-2.499 -2.0851,-5.51714 -2.0851,-9.05445 0,-3.22053 0.65159,-5.9835 1.95478,-8.28891 1.31284,-2.30541 2.93459,-3.45811 4.86524,-3.45811 1.98857,0 3.62479,1.1879 4.90867,3.5637 1.28389,2.3582 1.91618,5.42035 1.89687,9.18643 z m -1.23079,-2.24381 c -0.24134,-2.44619 -0.87845,-4.43483 -1.91134,-5.9659 -1.02325,-1.53107 -2.24439,-2.29661 -3.66341,-2.29661 -1.41903,0 -2.64017,0.75674 -3.66341,2.27021 -1.02324,1.51347 -1.66036,3.51091 -1.91134,5.9923 z m 10.99022,-9.71439 v 5.59633 c 1.58313,-2.60458 2.76565,-4.27644 3.54757,-5.01558 0.79156,-0.75673 1.52038,-1.1351 2.18646,-1.1351 0.72399,0 1.39489,0.44876 2.0127,1.34629 0.62746,0.87992 0.94119,1.54867 0.94119,2.00623 0,0.33437 -0.0627,0.61595 -0.18823,0.84473 -0.11585,0.21118 -0.26547,0.31677 -0.44889,0.31677 -0.0965,0 -0.17858,-0.0264 -0.24615,-0.0792 -0.0676,-0.0704 -0.19307,-0.27278 -0.37648,-0.60715 -0.33786,-0.61595 -0.63229,-1.03831 -0.88327,-1.26709 -0.25098,-0.22878 -0.49714,-0.34317 -0.73847,-0.34317 -0.53093,0 -1.17287,0.38716 -1.92582,1.1615 -0.74331,0.77434 -2.03685,2.66618 -3.88061,5.67553 v 12.14298 h 5.38651 c 0.29925,0 0.51162,0.10561 0.63712,0.31679 0.12549,0.19358 0.18823,0.45756 0.18823,0.79193 0,0.31677 -0.0627,0.58075 -0.18823,0.79194 -0.1255,0.21117 -0.33787,0.31676 -0.63712,0.31676 h -9.54223 c -0.2896,0 -0.49714,-0.0968 -0.62264,-0.29037 -0.12549,-0.21119 -0.18824,-0.47517 -0.18824,-0.79193 0,-0.29919 0.0579,-0.54557 0.17376,-0.73915 0.12549,-0.21119 0.33787,-0.31677 0.63712,-0.31677 h 2.93941 V 125.6029 h -2.24438 c -0.28959,0 -0.49714,-0.10559 -0.62264,-0.31677 -0.12549,-0.21118 -0.18823,-0.48396 -0.18823,-0.81833 0,-0.31677 0.0579,-0.58075 0.17376,-0.79193 0.12549,-0.21119 0.33787,-0.31678 0.63711,-0.31678 z m 22.74787,22.86049 v -3.19413 c -1.76655,2.71017 -3.65375,4.06525 -5.66163,4.06525 -1.45764,0 -2.59672,-0.66874 -3.41724,-2.00623 -0.82053,-1.35509 -1.2308,-3.00934 -1.2308,-4.96278 0,-2.14702 0.54059,-4.02126 1.62175,-5.62273 1.08116,-1.60146 2.65947,-2.4022 4.73492,-2.4022 0.55989,0 1.16804,0.0704 1.82446,0.21118 0.65642,0.12319 1.36594,0.32558 2.12854,0.60715 v -3.5901 c 0,-1.21429 -0.30891,-2.27021 -0.92671,-3.16773 -0.61781,-0.89753 -1.54452,-1.34629 -2.78013,-1.34629 -0.94602,0 -2.27334,0.50156 -3.98197,1.50468 -0.3089,0.17598 -0.50679,0.26397 -0.59367,0.26397 -0.15446,0 -0.28961,-0.10559 -0.40544,-0.31677 -0.10619,-0.21118 -0.15928,-0.47516 -0.15928,-0.79193 0,-0.29918 0.0483,-0.53676 0.1448,-0.71274 0.13515,-0.26398 0.68055,-0.62475 1.63622,-1.08231 1.50591,-0.73914 2.645,-1.10871 3.41726,-1.10871 1.53486,0 2.73186,0.69514 3.591,2.08542 0.85914,1.37269 1.28871,2.93016 1.28871,4.67241 v 14.67717 h 1.62174 c 0.29925,0 0.51163,0.10561 0.63712,0.31679 0.12549,0.19358 0.18824,0.45756 0.18824,0.79193 0,0.31677 -0.0627,0.58075 -0.18824,0.79194 -0.12549,0.21117 -0.33787,0.31676 -0.63712,0.31676 z m 0,-11.03428 c -0.56954,-0.29917 -1.17286,-0.51915 -1.80998,-0.65994 -0.63712,-0.14079 -1.30802,-0.21118 -2.01271,-0.21118 -1.76654,0 -3.14695,0.69514 -4.14124,2.08542 -0.75295,1.03832 -1.12942,2.27901 -1.12942,3.72209 0,1.33748 0.28477,2.46379 0.8543,3.37893 0.5792,0.91512 1.41904,1.37268 2.51951,1.37268 1.0522,0 2.02717,-0.37838 2.92492,-1.13511 0.90741,-0.77433 1.83895,-1.99743 2.79462,-3.66929 z m 14.94325,-11.82621 v 20.64307 h 4.77835 c 0.29925,0 0.51163,0.10561 0.63712,0.31679 0.12549,0.19358 0.18823,0.45756 0.18823,0.79193 0,0.31677 -0.0627,0.58075 -0.18823,0.79194 -0.12549,0.21117 -0.33787,0.31676 -0.63712,0.31676 h -10.77302 c -0.2896,0 -0.49714,-0.1056 -0.62263,-0.31676 -0.12549,-0.21119 -0.18824,-0.47517 -0.18824,-0.79194 0,-0.33437 0.0627,-0.59835 0.18824,-0.79193 0.12549,-0.21119 0.33303,-0.31679 0.62263,-0.31679 h 4.77836 V 125.6029 h -3.54757 c -0.2896,0 -0.50197,-0.10559 -0.63712,-0.31677 -0.12549,-0.21118 -0.18823,-0.47516 -0.18823,-0.79193 0,-0.33437 0.0627,-0.60715 0.18823,-0.81833 0.1255,-0.21119 0.33787,-0.31678 0.63712,-0.31678 z"
       id="text4"
       style="font-size:41.8242px;font-family:'Courier New';-inkscape-font-specification:'Courier New';fill:#ffffff;stroke:#ffffff;stroke-width:2.36458"
       aria-label="uperai"
       sodipodi:nodetypes="ccscscssssscsssccsssssccscssscccssscscsccscsssscscsccssssscscssssscscccsscscsccscscsccccsscccccscssscssscccscsssscscsccssscscccscsssccssscscsccscscscsssccsscscscccccscsssssscsccscsssc" />
  </g>
</svg>
