<?xml version="1.0" encoding="UTF-8" standalone="no"?>
<!-- Created with Inkscape (http://www.inkscape.org/) -->

<svg
   width="93.183571mm"
   height="29.715834mm"
   viewBox="0 0 93.183571 29.715834"
   version="1.1"
   id="svg1"
   inkscape:version="1.4.2 (f4327f4, 2025-05-13)"
   sodipodi:docname="KalaAI_must.svg"
   xmlns:inkscape="http://www.inkscape.org/namespaces/inkscape"
   xmlns:sodipodi="http://sodipodi.sourceforge.net/DTD/sodipodi-0.dtd"
   xmlns="http://www.w3.org/2000/svg"
   xmlns:svg="http://www.w3.org/2000/svg">
  <sodipodi:namedview
     id="namedview1"
     pagecolor="#ffffff"
     bordercolor="#000000"
     borderopacity="0.25"
     inkscape:showpageshadow="2"
     inkscape:pageopacity="0.0"
     inkscape:pagecheckerboard="0"
     inkscape:deskcolor="#d1d1d1"
     inkscape:document-units="mm"
     inkscape:zoom="2.0334082"
     inkscape:cx="149.99448"
     inkscape:cy="72.046529"
     inkscape:window-width="1920"
     inkscape:window-height="1009"
     inkscape:window-x="-8"
     inkscape:window-y="-8"
     inkscape:window-maximized="1"
     inkscape:current-layer="layer1" />
  <defs
     id="defs1" />
  <g
     inkscape:label="Kiht 1"
     inkscape:groupmode="layer"
     id="layer1"
     transform="translate(-12.424079,-125.82564)">
    <path
       style="fill:none;stroke:#000000;stroke-width:3"
       d="m 29.810408,140.95539 c 33.676338,30.53713 73.237922,-1.84015 73.237922,-1.84015 -43.070693,-27.23834 -68.697021,4.20731 -73.237922,1.84015 z"
       id="path7"
       sodipodi:nodetypes="ccc" />
    <path
       style="fill:none;fill-rule:evenodd;stroke:#000000;stroke-width:2.5;stroke-linecap:butt;stroke-linejoin:miter;stroke-dasharray:none;stroke-opacity:1"
       d="M 30.221568,141.14212 15.762427,126.71036"
       id="path8"
       inkscape:connector-type="polyline"
       inkscape:connector-curvature="0" />
    <path
       style="fill:none;fill-rule:evenodd;stroke:#000000;stroke-width:2.5;stroke-linecap:butt;stroke-linejoin:miter;stroke-dasharray:none;stroke-opacity:1"
       d="m 31.563758,141.35182 -18.504211,8.7141"
       id="path9"
       inkscape:connector-type="polyline"
       inkscape:connector-curvature="0" />
    <path
       style="fill:none;fill-rule:evenodd;stroke:#000000;stroke-width:2.5;stroke-linecap:butt;stroke-linejoin:miter;stroke-dasharray:none;stroke-opacity:1"
       d="m 15.739735,127.5015 -2.071051,22.2181"
       id="path10"
       inkscape:connector-type="polyline"
       inkscape:connector-curvature="0" />
    <path
       d="m 54.598648,123.77308 v 2.74012 h -1.443323 q -0.219795,0 -0.31504,-0.0879 -0.09524,-0.0879 -0.09524,-0.21979 0,-0.13921 0.09524,-0.2198 0.09524,-0.0879 0.31504,-0.0879 h 0.827896 v -7.95659 h -0.827896 q -0.219795,0 -0.31504,-0.0879 -0.09524,-0.0879 -0.09524,-0.22712 0,-0.13188 0.09524,-0.2198 0.09524,-0.0879 0.31504,-0.0879 h 1.443323 v 5.67073 l 2.615566,-2.19796 h -0.31504 q -0.219796,0 -0.31504,-0.0879 -0.09524,-0.0879 -0.09524,-0.21979 0,-0.13921 0.09524,-0.22712 0.09524,-0.0879 0.31504,-0.0879 h 1.970832 q 0.227122,0 0.322366,0.0879 0.09524,0.0879 0.09524,0.22712 0,0.13188 -0.09524,0.21979 -0.09524,0.0879 -0.322366,0.0879 h -0.710672 l -2.403096,2.00747 3.040503,3.09911 h 0.710671 q 0.227122,0 0.322367,0.0879 0.09524,0.0806 0.09524,0.2198 0,0.13187 -0.09524,0.21979 -0.09525,0.0879 -0.322367,0.0879 h -1.992811 q -0.219796,0 -0.31504,-0.0879 -0.09525,-0.0879 -0.09525,-0.21979 0,-0.13921 0.09525,-0.2198 0.09524,-0.0879 0.31504,-0.0879 h 0.432264 l -2.644871,-2.71813 z"
       id="text10"
       style="font-size:15.0047px;font-family:'Courier New';-inkscape-font-specification:'Courier New';fill:#999999;stroke:#999999;stroke-width:1.47684"
       transform="scale(0.85669887,1.1672713)"
       aria-label="k" />
    <path
       d="m 82.316693,108.91169 v -1.45146 q -2.195178,1.84731 -4.690244,1.84731 -1.811321,0 -2.83094,-0.91166 -1.019618,-0.92365 -1.019618,-2.25515 0,-1.46345 1.343497,-2.55505 1.343497,-1.09159 3.922531,-1.09159 0.695739,0 1.511434,0.096 0.815694,0.084 1.76334,0.27589 v -1.63138 q 0,-0.82769 -0.767713,-1.439466 -0.767712,-0.611771 -2.303137,-0.611771 -1.17556,0 -3.298765,0.683744 -0.383856,0.119955 -0.491816,0.119955 -0.191928,0 -0.335874,-0.143946 -0.13195,-0.143946 -0.13195,-0.359865 0,-0.203924 0.119955,-0.323879 0.167937,-0.179932 1.355492,-0.491816 1.871299,-0.503811 2.83094,-0.503811 1.907285,0 2.974886,0.947645 1.0676,0.93565 1.0676,2.12321 v 6.6695 h 1.343497 q 0.37186,0 0.527802,0.14394 0.155941,0.13195 0.155941,0.35987 0,0.21592 -0.155941,0.35986 -0.155942,0.14395 -0.527802,0.14395 z m 0,-5.01412 q -0.707735,-0.20393 -1.499439,-0.29989 -0.791703,-0.096 -1.667375,-0.096 -2.195178,0 -3.430716,0.94764 -0.935649,0.70774 -0.935649,1.69137 0,0.91166 0.707735,1.53542 0.71973,0.62377 2.087218,0.62377 1.30751,0 2.423093,-0.51581 1.127577,-0.5278 2.315133,-1.66737 z"
       id="text10-1"
       style="font-size:24.5668px;font-family:'Courier New';-inkscape-font-specification:'Courier New';fill:#999999;stroke:#999999;stroke-width:2.41799"
       transform="scale(0.73527471,1.3600359)"
       aria-label="a" />
    <path
       d="m 71.255647,133.16013 v 14.52314 h 4.092774 q 0.384472,0 0.545703,0.14883 0.16123,0.13642 0.16123,0.37207 0,0.22324 -0.16123,0.37207 -0.161231,0.14883 -0.545703,0.14883 h -9.227344 q -0.37207,0 -0.533301,-0.14883 -0.16123,-0.14883 -0.16123,-0.37207 0,-0.23565 0.16123,-0.37207 0.161231,-0.14883 0.533301,-0.14883 h 4.092773 v -13.46894 h -3.001367 q -0.37207,0 -0.545703,-0.14883 -0.16123,-0.14883 -0.16123,-0.38448 0,-0.22324 0.16123,-0.37207 0.161231,-0.14882 0.545703,-0.14882 z"
       id="text11"
       style="font-size:25.4px;font-family:'Courier New';-inkscape-font-specification:'Courier New';fill:#999999;stroke:#999999;stroke-width:2.5"
       aria-label="l" />
    <path
       d="m 94.008232,125.41785 v -1.12407 q -1.700033,1.43063 -3.63231,1.43063 -1.402759,0 -2.192391,-0.70602 -0.789633,-0.71532 -0.789633,-1.74649 0,-1.13335 1.040457,-1.97872 1.040457,-0.84537 3.037763,-0.84537 0.538808,0 1.170514,0.0743 0.631706,0.065 1.3656,0.21367 v -1.26341 q 0,-0.641 -0.594547,-1.11478 -0.594547,-0.47378 -1.783641,-0.47378 -0.9104,0 -2.554693,0.52952 -0.297274,0.0929 -0.380882,0.0929 -0.148636,0 -0.260114,-0.11148 -0.102188,-0.11148 -0.102188,-0.27869 0,-0.15793 0.0929,-0.25083 0.130057,-0.13934 1.049747,-0.38088 1.449208,-0.39017 2.192392,-0.39017 1.477077,0 2.303869,0.73389 0.826791,0.72461 0.826791,1.6443 v 5.16512 h 1.040457 q 0.287984,0 0.408751,0.11148 0.120768,0.10219 0.120768,0.2787 0,0.16721 -0.120768,0.27869 -0.120767,0.11148 -0.408751,0.11148 z m 0,-3.88314 q -0.548098,-0.15792 -1.161225,-0.23224 -0.613126,-0.0743 -1.291281,-0.0743 -1.700032,0 -2.656881,0.73389 -0.724604,0.5481 -0.724604,1.30986 0,0.70603 0.548098,1.1891 0.557387,0.48307 1.616424,0.48307 1.012588,0 1.876538,-0.39946 0.873241,-0.40875 1.792931,-1.29129 z"
       id="text12"
       style="font-size:19.0255px;font-family:'Courier New';-inkscape-font-specification:'Courier New';fill:#999999;stroke:#999999;stroke-width:1.87259"
       transform="scale(0.86847962,1.1514375)"
       aria-label="a" />
    <ellipse
       style="fill:#000000;stroke:#000000;stroke-width:0;stroke-dasharray:none"
       id="path13"
       cx="89.261063"
       cy="137.9903"
       rx="2.2120087"
       ry="2.1469498" />
  </g>
</svg>
