<?xml version="1.0" encoding="UTF-8" standalone="no"?>
<!-- Created with Inkscape (http://www.inkscape.org/) -->

<svg
   width="49.297962mm"
   height="82.432655mm"
   viewBox="0 0 49.297962 82.432655"
   version="1.1"
   id="svg1"
   inkscape:version="1.4.3 (0d15f75, 2025-12-25)"
   sodipodi:docname="naermine.svg"
   xmlns:inkscape="http://www.inkscape.org/namespaces/inkscape"
   xmlns:sodipodi="http://sodipodi.sourceforge.net/DTD/sodipodi-0.dtd"
   xmlns:xlink="http://www.w3.org/1999/xlink"
   xmlns="http://www.w3.org/2000/svg"
   xmlns:svg="http://www.w3.org/2000/svg">
  <sodipodi:namedview
     id="namedview1"
     pagecolor="#ffffff"
     bordercolor="#000000"
     borderopacity="0.25"
     inkscape:showpageshadow="2"
     inkscape:pageopacity="0.0"
     inkscape:pagecheckerboard="0"
     inkscape:deskcolor="#d1d1d1"
     inkscape:document-units="mm"
     inkscape:zoom="2.6191078"
     inkscape:cx="80.370882"
     inkscape:cy="107.47935"
     inkscape:window-width="1920"
     inkscape:window-height="974"
     inkscape:window-x="-11"
     inkscape:window-y="-11"
     inkscape:window-maximized="1"
     inkscape:current-layer="layer1" />
  <defs
     id="defs1">
    <inkscape:path-effect
       effect="spiro"
       id="path-effect7"
       is_visible="true"
       lpeversion="1" />
    <inkscape:path-effect
       effect="spiro"
       id="path-effect6"
       is_visible="true"
       lpeversion="1" />
    <inkscape:path-effect
       effect="spiro"
       id="path-effect5"
       is_visible="true"
       lpeversion="1" />
    <inkscape:path-effect
       effect="spiro"
       id="path-effect3"
       is_visible="true"
       lpeversion="1" />
    <inkscape:path-effect
       effect="spiro"
       id="path-effect2"
       is_visible="true"
       lpeversion="1" />
    <inkscape:path-effect
       effect="spiro"
       id="path-effect7-4"
       is_visible="true"
       lpeversion="1" />
  </defs>
  <g
     inkscape:label="Kiht 1"
     inkscape:groupmode="layer"
     id="layer1"
     transform="translate(-82.432661,-98.999981)">
    <ellipse
       style="fill:#ffd42a;fill-rule:evenodd;stroke:#ffd42a;stroke-width:0;stroke-miterlimit:2.1"
       id="path1"
       cx="107.08164"
       cy="140.21631"
       rx="24.648981"
       ry="41.216328" />
    <ellipse
       style="fill:#000000;fill-rule:evenodd;stroke:#000000;stroke-width:0;stroke-miterlimit:2.1"
       id="path3"
       cx="118.8"
       cy="123.2449"
       rx="6.0612245"
       ry="6.4653058" />
    <use
       x="0"
       y="0"
       xlink:href="#path3"
       id="use3"
       transform="translate(-23.812509)" />
    <path
       style="fill:#000000;fill-rule:evenodd;stroke:#000000;stroke-width:0;stroke-miterlimit:2.1"
       d="m 90.51179,151.23907 c -0.368874,4.76933 2.297367,7.24749 4.897333,10.35459 1.069211,1.27777 1.883589,2.85127 3.013742,4.0518 0.435486,1.82649 2.088685,1.36661 3.013745,2.251 0.55468,0.53031 0.83297,1.53235 1.50687,1.80079 0.61859,0.24643 4.7837,0.19534 5.27405,0 0.81139,-0.32322 1.67287,-1.15856 2.63702,-1.35059 0.88932,-0.17713 1.44521,0.32908 2.26031,-0.4502 0.35355,-0.338 0.55096,-0.86665 0.75343,-1.3506 0.0561,-0.13422 -0.11231,-0.38308 0,-0.4502 0.22464,-0.13422 0.5023,0 0.75344,0 0.25115,-0.15006 0.51981,-0.26406 0.75344,-0.4502 0.7463,0.0449 0.17817,-0.66311 0.37671,-0.90039 0.68507,-0.8187 1.69155,-1.23145 2.26031,-2.251 0.10105,-0.18113 1.0918,-2.20516 1.13016,-2.251 0.0888,-0.10607 0.27223,0.0832 0.37672,0 0.4508,-0.35917 1.40633,-1.53011 1.50687,-2.251 0.88702,-6.3603 -1.07817,2.32081 0.75343,-3.1514 0.37617,-1.12387 0,-3.25688 0,-4.50201"
       id="path4" />
    <path
       style="fill:#000080;fill-rule:evenodd;stroke:#000080;stroke-width:0;stroke-miterlimit:2.1;stroke-dasharray:none"
       d="m 119.79171,136.78762 c 0.59307,-1.00136 1.18833,-2.00141 1.7858,-3.00015 0.35638,-0.59574 0.71355,-1.19101 1.07149,-1.78581 0.0772,0.01 0.15838,-0.0172 0.21429,-0.0714 0.04,-0.0388 0.0668,-0.09 0.0817,-0.14374 0.0149,-0.0537 0.0184,-0.1101 0.0165,-0.16584 -0.004,-0.11147 -0.0295,-0.2218 -0.0268,-0.33331 0.003,-0.11779 0.038,-0.2346 0.10053,-0.33448 0.0625,-0.0999 0.15212,-0.18258 0.25663,-0.23698 0.0544,-0.0283 0.11266,-0.0491 0.16541,-0.0804 0.0264,-0.0156 0.0513,-0.034 0.0725,-0.0562 0.0211,-0.0222 0.0383,-0.0486 0.0479,-0.0777 0.0116,-0.0353 0.0117,-0.0733 0.009,-0.11032 -0.002,-0.0371 -0.007,-0.0742 -0.004,-0.11122 0.003,-0.037 0.0133,-0.0748 0.0377,-0.10276 0.0122,-0.014 0.0277,-0.0252 0.0453,-0.0314 0.0175,-0.006 0.037,-0.007 0.0547,-0.001 0.013,0.004 0.0248,0.0116 0.0344,0.0212 0.01,0.01 0.0171,0.0213 0.0222,0.0339 0.0102,0.0252 0.0109,0.0536 0.006,0.0803 -0.0101,0.0535 -0.0416,0.10006 -0.0624,0.1503 -0.0462,0.1112 -0.0387,0.24021 0.005,0.35249 0.0435,0.11227 0.12071,0.20904 0.20949,0.2904 0.16613,0.15225 0.3715,0.25328 0.57146,0.35717 0.13927,0.0724 0.27865,0.14796 0.39678,0.2513 0.11813,0.10333 0.21478,0.2378 0.24611,0.39159 0.008,0.0375 0.0114,0.0758 0.0204,0.11295 0.009,0.0372 0.0242,0.074 0.051,0.10134 0.0268,0.0274 0.0635,0.0433 0.10076,0.0526 0.0372,0.009 0.0757,0.0126 0.11354,0.0188 0.17085,0.0278 0.33137,0.11536 0.44716,0.24402 0.11579,0.12866 0.18606,0.29749 0.19573,0.47031 l 0.28572,0.42859 c 0.0469,-0.017 0.10173,-0.0104 0.14325,0.0173 0.0415,0.0277 0.0687,0.0757 0.071,0.12558 0.002,0.0365 -0.009,0.0723 -0.0148,0.10836 -0.003,0.018 -0.005,0.0364 -0.003,0.0546 0.002,0.0182 0.007,0.0362 0.0175,0.0514 0.0153,0.0224 0.04,0.0367 0.0654,0.0463 0.0254,0.01 0.0521,0.0154 0.0775,0.025 0.0431,0.0165 0.0815,0.0443 0.11278,0.0782 0.0313,0.0339 0.0557,0.0739 0.0743,0.11609 0.0373,0.0845 0.0515,0.17696 0.0651,0.26825 0.0136,0.0913 0.0274,0.18381 0.0637,0.26866 0.0182,0.0424 0.042,0.0827 0.0728,0.11709 0.0308,0.0344 0.0686,0.0629 0.11132,0.0803 0.025,0.0102 0.0515,0.0165 0.0767,0.0263 0.0252,0.01 0.0499,0.0235 0.0661,0.0451 0.0111,0.0147 0.0178,0.0325 0.0208,0.0507 0.003,0.0182 0.003,0.0368 2.5e-4,0.0551 -0.005,0.0366 -0.0162,0.072 -0.021,0.10853 -0.007,0.0568 0.002,0.11484 0.0196,0.16927 0.0178,0.0544 0.0441,0.10567 0.0715,0.15598 0.0548,0.1006 0.11598,0.20331 0.12321,0.31764 0.005,0.0714 -0.0125,0.14384 0,0.2143 0.009,0.0512 0.0336,0.0987 0.0645,0.14049 0.0309,0.0418 0.0682,0.0784 0.10592,0.11423 0.0377,0.0358 0.076,0.0712 0.10944,0.11101 0.0334,0.0398 0.062,0.0846 0.0773,0.13429 0.0112,0.0365 0.0151,0.0748 0.0233,0.11204 0.008,0.0373 0.0216,0.0748 0.0481,0.10226 0.0187,0.0193 0.0428,0.0325 0.0676,0.0428 0.0248,0.0104 0.0505,0.0182 0.0753,0.0286 0.1098,0.0462 0.19422,0.14267 0.23967,0.25278 0.0455,0.11011 0.0544,0.23285 0.0408,0.3512 -0.0271,0.23671 -0.13929,0.45401 -0.20909,0.6818 -0.12466,0.40683 -0.11242,0.8437 -0.0534,1.26509 0.059,0.42139 0.16323,0.83551 0.22,1.25721 0.0568,0.42169 0.0644,0.85915 -0.0667,1.26396 -0.0655,0.20241 -0.16575,0.39465 -0.30315,0.55708 -0.1374,0.16243 -0.31264,0.29441 -0.51105,0.37119 -0.0501,0.0194 -0.10155,0.0353 -0.15092,0.0564 -0.0494,0.0212 -0.0971,0.0481 -0.13481,0.0864 -0.0455,0.0463 -0.074,0.10684 -0.0938,0.16868 -0.0198,0.0618 -0.0317,0.12593 -0.0491,0.18848 -0.0868,0.31204 -0.30887,0.57293 -0.56974,0.76492 -0.26087,0.19198 -0.56081,0.32275 -0.85891,0.44943 -0.59149,0.25136 -1.2183,0.49787 -1.85724,0.4286 -0.0837,-0.009 -0.16684,-0.0236 -0.25087,-0.0285 -0.084,-0.005 -0.16998,-7e-5 -0.24915,0.0285 -0.10032,0.0362 -0.18476,0.10851 -0.28573,0.14286 -0.0683,0.0232 -0.14164,0.0282 -0.21369,0.0246 -0.072,-0.004 -0.14338,-0.0153 -0.21491,-0.0246 -0.25902,-0.0337 -0.52159,-0.0355 -0.77998,-0.0738 -0.2584,-0.0382 -0.51883,-0.11688 -0.72009,-0.28338 -0.0779,-0.0644 -0.14515,-0.14055 -0.2143,-0.2143 -0.12327,-0.13147 -0.25365,-0.2565 -0.36937,-0.39465 -0.11573,-0.13815 -0.21743,-0.29127 -0.27352,-0.46253 -0.0139,-0.0426 -0.0252,-0.0864 -0.0462,-0.126 -0.0105,-0.0198 -0.0235,-0.0384 -0.0396,-0.0539 -0.0162,-0.0155 -0.0356,-0.0279 -0.057,-0.0344 -0.0231,-0.007 -0.0483,-0.007 -0.0714,0 -0.0605,-0.0318 -0.11104,-0.0824 -0.14286,-0.14287 -0.0301,-0.0572 -0.0432,-0.12151 -0.0601,-0.18391 -0.0169,-0.0624 -0.039,-0.1257 -0.0828,-0.17325 -0.023,-0.025 -0.0511,-0.0446 -0.0773,-0.0661 -0.0262,-0.0215 -0.0514,-0.0459 -0.0656,-0.0768 -0.0167,-0.0364 -0.0166,-0.0784 -0.01,-0.11794 0.007,-0.0395 0.0196,-0.0777 0.0274,-0.11697 0.008,-0.0393 0.0104,-0.0809 -0.003,-0.11863 -0.007,-0.0189 -0.0176,-0.0364 -0.0324,-0.0499 -0.0148,-0.0135 -0.0336,-0.0229 -0.0535,-0.0251 -0.0237,-0.003 -0.048,0.004 -0.0714,0 -0.0165,-0.003 -0.0317,-0.0122 -0.0424,-0.0251 -0.0107,-0.0129 -0.0167,-0.0296 -0.0167,-0.0463 0,-0.0168 0.006,-0.0334 0.0167,-0.0463 0.0107,-0.0129 0.0259,-0.022 0.0424,-0.0251 -0.0428,-0.0745 -0.0905,-0.14617 -0.14287,-0.21429 -0.0812,-0.10562 -0.17317,-0.20252 -0.2551,-0.30757 -0.0819,-0.10504 -0.15458,-0.22024 -0.18965,-0.34875 -0.0175,-0.0642 -0.0254,-0.13142 -0.0199,-0.1978 0.005,-0.0664 0.0246,-0.13195 0.0584,-0.18934 0.0338,-0.0574 0.0826,-0.10634 0.14144,-0.13756 0.0588,-0.0312 0.12773,-0.0442 0.19345,-0.0333 0.012,0.002 0.0238,0.005 0.0359,0.006 0.0121,8.7e-4 0.0246,-2.4e-4 0.0355,-0.006 0.0121,-0.006 0.0214,-0.017 0.0265,-0.0296 0.005,-0.0126 0.006,-0.0265 0.004,-0.04 -0.004,-0.0268 -0.0183,-0.0507 -0.0324,-0.0738 -0.0141,-0.0231 -0.0284,-0.0473 -0.0314,-0.0742 -0.002,-0.0134 -9e-5,-0.0274 0.005,-0.0398 0.006,-0.0124 0.0153,-0.023 0.0277,-0.0284 0.0111,-0.005 0.0235,-0.005 0.0355,-0.004 0.012,0.001 0.0239,0.003 0.0359,0.004 0.0262,0.001 0.0526,-0.006 0.0752,-0.0189 0.0226,-0.0134 0.0413,-0.0329 0.0547,-0.0554 0.0268,-0.0451 0.0317,-0.10092 0.0215,-0.1524 -0.0102,-0.0515 -0.0343,-0.0992 -0.0624,-0.1435 -0.0281,-0.0443 -0.0604,-0.0858 -0.0891,-0.12979 -0.14757,-0.22683 -0.18953,-0.50932 -0.16994,-0.77922 0.0196,-0.26989 0.0963,-0.53191 0.16994,-0.79229 0.15411,-0.54463 0.29702,-1.09243 0.4286,-1.64294 z"
       id="path6"
       inkscape:path-effect="#path-effect7"
       inkscape:original-d="m 119.79171,136.78762 c -0.023,-0.36377 1.1603,-1.98744 1.7858,-3.00015 0.29647,-0.47998 0.63828,-1.3526 1.07149,-1.78581 0.004,-0.20113 0.16105,-0.0182 0.21429,-0.0714 0.0368,-0.0368 0.0275,-0.55507 0.0714,-0.64289 0.0943,-0.18859 0.19893,-0.41323 0.35716,-0.57146 0.0842,-0.0842 0.20951,-0.12283 0.28573,-0.21429 0.13948,-0.16738 0.002,-0.21585 0.14286,-0.35716 0.01,-0.01 0,0.0917 0,0.28572 0,0.28228 -0.0429,0.41783 0.2143,0.64289 0.16905,0.14793 0.4009,0.21098 0.57146,0.35717 0.16183,0.13871 0.54733,0.45179 0.64289,0.64289 0.0337,0.0673 0.0182,0.16105 0.0714,0.21429 0.0532,0.0532 0.15164,0.0297 0.2143,0.0714 0.26653,0.1777 0.44003,0.4664 0.64289,0.71433 0.1877,0.0644 0.18722,0.29726 0.28572,0.42859 -0.17626,0.21626 0.1943,0.12287 0.2143,0.14286 0.0357,0.0357 -0.0357,0.17858 0,0.2143 0.0376,0.0376 0.11333,0.0271 0.14286,0.0714 0.20536,0.30803 0.22188,0.65047 0.50003,0.92862 0.0376,0.0377 0.10521,0.0338 0.14286,0.0714 0.0505,0.0505 -0.014,0.14426 0,0.2143 0.0344,0.17191 0.14741,0.50912 0.2143,0.64289 0.0286,0.0572 -0.0286,0.15715 0,0.2143 0.0885,0.17706 0.25916,0.30402 0.35716,0.50002 0.0337,0.0674 0.0378,0.14695 0.0714,0.2143 0.14864,0.29729 -0.005,-0.0764 0.14287,0.0714 0.0751,0.0751 0.0484,1.07876 0.0714,1.28578 0.17593,1.58336 0.19571,3.34949 -0.71432,4.71453 -0.23502,0.35252 0.20724,-0.4487 -0.28573,0.14286 -0.0821,0.0985 -0.0793,0.24583 -0.14286,0.35716 -0.17914,0.31349 -1.04914,1.10592 -1.42865,1.21435 -0.60467,0.17276 -1.24293,0.29208 -1.85724,0.4286 -0.1548,0.0344 -0.35034,-0.0499 -0.50002,0 -0.10102,0.0337 -0.18334,0.11361 -0.28573,0.14286 -0.13737,0.0393 -0.28573,0 -0.4286,0 -0.68222,0 -0.81534,0.0163 -1.50007,-0.35716 -0.0873,-0.0476 -0.13493,-0.15477 -0.2143,-0.2143 -0.36083,-0.27062 -0.39456,-0.4847 -0.64289,-0.85718 -0.0476,-0.0714 -0.0822,-0.15359 -0.14286,-0.2143 -0.0168,-0.0168 -0.0476,0 -0.0714,0 -0.0476,-0.0476 -0.10821,-0.0851 -0.14286,-0.14287 -0.0544,-0.0907 -0.0878,-0.27453 -0.14286,-0.35716 -0.0374,-0.056 -0.11275,-0.0826 -0.14287,-0.14286 -0.0516,-0.10318 -0.0198,-0.32542 -0.0714,-0.42859 -0.0106,-0.0213 -0.0608,0.0213 -0.0714,0 -0.0213,-0.0426 0.0116,-0.0967 0,-0.14287 0.043,-0.12929 -0.11572,-0.13285 -0.14287,-0.21429 -0.005,-0.016 -0.12603,-1.15975 -0.0714,-1.21435 0.0168,-0.0168 0.0608,0.0213 0.0714,0 0.0131,-0.0262 -0.0301,-0.25568 0,-0.28573 0.0168,-0.0168 0.0546,0.0168 0.0714,0 0.0458,-0.0458 0,-0.42867 0,-0.50003 0,-0.49505 -0.0666,-1.13867 0,-1.57151 0.0861,-0.55939 0.28573,-1.09529 0.4286,-1.64294 z"
       transform="matrix(0.5690458,-0.59524577,0.59577408,0.56854119,-26.225988,126.48515)" />
    <path
       style="fill:#000080;fill-rule:evenodd;stroke:#000080;stroke-width:0;stroke-miterlimit:2.1;stroke-dasharray:none"
       d="m 119.79171,136.78762 c 0.59307,-1.00136 1.18833,-2.00141 1.7858,-3.00015 0.35638,-0.59574 0.71355,-1.19101 1.07149,-1.78581 0.0772,0.01 0.15838,-0.0172 0.21429,-0.0714 0.04,-0.0388 0.0668,-0.09 0.0817,-0.14374 0.0149,-0.0537 0.0184,-0.1101 0.0165,-0.16584 -0.004,-0.11147 -0.0295,-0.2218 -0.0268,-0.33331 0.003,-0.11779 0.038,-0.2346 0.10053,-0.33448 0.0625,-0.0999 0.15212,-0.18258 0.25663,-0.23698 0.0544,-0.0283 0.11266,-0.0491 0.16541,-0.0804 0.0264,-0.0156 0.0513,-0.034 0.0725,-0.0562 0.0211,-0.0222 0.0383,-0.0486 0.0479,-0.0777 0.0116,-0.0353 0.0117,-0.0733 0.009,-0.11032 -0.002,-0.0371 -0.007,-0.0742 -0.004,-0.11122 0.003,-0.037 0.0133,-0.0748 0.0377,-0.10276 0.0122,-0.014 0.0277,-0.0252 0.0453,-0.0314 0.0175,-0.006 0.037,-0.007 0.0547,-0.001 0.013,0.004 0.0248,0.0116 0.0344,0.0212 0.01,0.01 0.0171,0.0213 0.0222,0.0339 0.0102,0.0252 0.0109,0.0536 0.006,0.0803 -0.0101,0.0535 -0.0416,0.10006 -0.0624,0.1503 -0.0462,0.1112 -0.0387,0.24021 0.005,0.35249 0.0435,0.11227 0.12071,0.20904 0.20949,0.2904 0.16613,0.15225 0.3715,0.25328 0.57146,0.35717 0.13927,0.0724 0.27865,0.14796 0.39678,0.2513 0.11813,0.10333 0.21478,0.2378 0.24611,0.39159 0.008,0.0375 0.0114,0.0758 0.0204,0.11295 0.009,0.0372 0.0242,0.074 0.051,0.10134 0.0268,0.0274 0.0635,0.0433 0.10076,0.0526 0.0372,0.009 0.0757,0.0126 0.11354,0.0188 0.17085,0.0278 0.33137,0.11536 0.44716,0.24402 0.11579,0.12866 0.18606,0.29749 0.19573,0.47031 l 0.28572,0.42859 c 0.0469,-0.017 0.10173,-0.0104 0.14325,0.0173 0.0415,0.0277 0.0687,0.0757 0.071,0.12558 0.002,0.0365 -0.009,0.0723 -0.0148,0.10836 -0.003,0.018 -0.005,0.0364 -0.003,0.0546 0.002,0.0182 0.007,0.0362 0.0175,0.0514 0.0153,0.0224 0.04,0.0367 0.0654,0.0463 0.0254,0.01 0.0521,0.0154 0.0775,0.025 0.0431,0.0165 0.0815,0.0443 0.11278,0.0782 0.0313,0.0339 0.0557,0.0739 0.0743,0.11609 0.0373,0.0845 0.0515,0.17696 0.0651,0.26825 0.0136,0.0913 0.0274,0.18381 0.0637,0.26866 0.0182,0.0424 0.042,0.0827 0.0728,0.11709 0.0308,0.0344 0.0686,0.0629 0.11132,0.0803 0.025,0.0102 0.0515,0.0165 0.0767,0.0263 0.0252,0.01 0.0499,0.0235 0.0661,0.0451 0.0111,0.0147 0.0178,0.0325 0.0208,0.0507 0.003,0.0182 0.003,0.0368 2.5e-4,0.0551 -0.005,0.0366 -0.0162,0.072 -0.021,0.10853 -0.007,0.0568 0.002,0.11484 0.0196,0.16927 0.0178,0.0544 0.0441,0.10567 0.0715,0.15598 0.0548,0.1006 0.11598,0.20331 0.12321,0.31764 0.005,0.0714 -0.0125,0.14384 0,0.2143 0.009,0.0512 0.0336,0.0987 0.0645,0.14049 0.0309,0.0418 0.0682,0.0784 0.10592,0.11423 0.0377,0.0358 0.076,0.0712 0.10944,0.11101 0.0334,0.0398 0.062,0.0846 0.0773,0.13429 0.0112,0.0365 0.0151,0.0748 0.0233,0.11204 0.008,0.0373 0.0216,0.0748 0.0481,0.10226 0.0187,0.0193 0.0428,0.0325 0.0676,0.0428 0.0248,0.0104 0.0505,0.0182 0.0753,0.0286 0.1098,0.0462 0.19422,0.14267 0.23967,0.25278 0.0455,0.11011 0.0544,0.23285 0.0408,0.3512 -0.0271,0.23671 -0.13929,0.45401 -0.20909,0.6818 -0.12466,0.40683 -0.11242,0.8437 -0.0534,1.26509 0.059,0.42139 0.16323,0.83551 0.22,1.25721 0.0568,0.42169 0.0644,0.85915 -0.0667,1.26396 -0.0655,0.20241 -0.16575,0.39465 -0.30315,0.55708 -0.1374,0.16243 -0.31264,0.29441 -0.51105,0.37119 -0.0501,0.0194 -0.10155,0.0353 -0.15092,0.0564 -0.0494,0.0212 -0.0971,0.0481 -0.13481,0.0864 -0.0455,0.0463 -0.074,0.10684 -0.0938,0.16868 -0.0198,0.0618 -0.0317,0.12593 -0.0491,0.18848 -0.0868,0.31204 -0.30887,0.57293 -0.56974,0.76492 -0.26087,0.19198 -0.56081,0.32275 -0.85891,0.44943 -0.59149,0.25136 -1.2183,0.49787 -1.85724,0.4286 -0.0837,-0.009 -0.16684,-0.0236 -0.25087,-0.0285 -0.084,-0.005 -0.16998,-7e-5 -0.24915,0.0285 -0.10032,0.0362 -0.18476,0.10851 -0.28573,0.14286 -0.0683,0.0232 -0.14164,0.0282 -0.21369,0.0246 -0.072,-0.004 -0.14338,-0.0153 -0.21491,-0.0246 -0.25902,-0.0337 -0.52159,-0.0355 -0.77998,-0.0738 -0.2584,-0.0382 -0.51883,-0.11688 -0.72009,-0.28338 -0.0779,-0.0644 -0.14515,-0.14055 -0.2143,-0.2143 -0.12327,-0.13147 -0.25365,-0.2565 -0.36937,-0.39465 -0.11573,-0.13815 -0.21743,-0.29127 -0.27352,-0.46253 -0.0139,-0.0426 -0.0252,-0.0864 -0.0462,-0.126 -0.0105,-0.0198 -0.0235,-0.0384 -0.0396,-0.0539 -0.0162,-0.0155 -0.0356,-0.0279 -0.057,-0.0344 -0.0231,-0.007 -0.0483,-0.007 -0.0714,0 -0.0605,-0.0318 -0.11104,-0.0824 -0.14286,-0.14287 -0.0301,-0.0572 -0.0432,-0.12151 -0.0601,-0.18391 -0.0169,-0.0624 -0.039,-0.1257 -0.0828,-0.17325 -0.023,-0.025 -0.0511,-0.0446 -0.0773,-0.0661 -0.0262,-0.0215 -0.0514,-0.0459 -0.0656,-0.0768 -0.0167,-0.0364 -0.0166,-0.0784 -0.01,-0.11794 0.007,-0.0395 0.0196,-0.0777 0.0274,-0.11697 0.008,-0.0393 0.0104,-0.0809 -0.003,-0.11863 -0.007,-0.0189 -0.0176,-0.0364 -0.0324,-0.0499 -0.0148,-0.0135 -0.0336,-0.0229 -0.0535,-0.0251 -0.0237,-0.003 -0.048,0.004 -0.0714,0 -0.0165,-0.003 -0.0317,-0.0122 -0.0424,-0.0251 -0.0107,-0.0129 -0.0167,-0.0296 -0.0167,-0.0463 0,-0.0168 0.006,-0.0334 0.0167,-0.0463 0.0107,-0.0129 0.0259,-0.022 0.0424,-0.0251 -0.0428,-0.0745 -0.0905,-0.14617 -0.14287,-0.21429 -0.0812,-0.10562 -0.17317,-0.20252 -0.2551,-0.30757 -0.0819,-0.10504 -0.15458,-0.22024 -0.18965,-0.34875 -0.0175,-0.0642 -0.0254,-0.13142 -0.0199,-0.1978 0.005,-0.0664 0.0246,-0.13195 0.0584,-0.18934 0.0338,-0.0574 0.0826,-0.10634 0.14144,-0.13756 0.0588,-0.0312 0.12773,-0.0442 0.19345,-0.0333 0.012,0.002 0.0238,0.005 0.0359,0.006 0.0121,8.7e-4 0.0246,-2.4e-4 0.0355,-0.006 0.0121,-0.006 0.0214,-0.017 0.0265,-0.0296 0.005,-0.0126 0.006,-0.0265 0.004,-0.04 -0.004,-0.0268 -0.0183,-0.0507 -0.0324,-0.0738 -0.0141,-0.0231 -0.0284,-0.0473 -0.0314,-0.0742 -0.002,-0.0134 -9e-5,-0.0274 0.005,-0.0398 0.006,-0.0124 0.0153,-0.023 0.0277,-0.0284 0.0111,-0.005 0.0235,-0.005 0.0355,-0.004 0.012,0.001 0.0239,0.003 0.0359,0.004 0.0262,0.001 0.0526,-0.006 0.0752,-0.0189 0.0226,-0.0134 0.0413,-0.0329 0.0547,-0.0554 0.0268,-0.0451 0.0317,-0.10092 0.0215,-0.1524 -0.0102,-0.0515 -0.0343,-0.0992 -0.0624,-0.1435 -0.0281,-0.0443 -0.0604,-0.0858 -0.0891,-0.12979 -0.14757,-0.22683 -0.18953,-0.50932 -0.16994,-0.77922 0.0196,-0.26989 0.0963,-0.53191 0.16994,-0.79229 0.15411,-0.54463 0.29702,-1.09243 0.4286,-1.64294 z"
       id="path6-2"
       inkscape:path-effect="#path-effect7-4"
       inkscape:original-d="m 119.79171,136.78762 c -0.023,-0.36377 1.1603,-1.98744 1.7858,-3.00015 0.29647,-0.47998 0.63828,-1.3526 1.07149,-1.78581 0.004,-0.20113 0.16105,-0.0182 0.21429,-0.0714 0.0368,-0.0368 0.0275,-0.55507 0.0714,-0.64289 0.0943,-0.18859 0.19893,-0.41323 0.35716,-0.57146 0.0842,-0.0842 0.20951,-0.12283 0.28573,-0.21429 0.13948,-0.16738 0.002,-0.21585 0.14286,-0.35716 0.01,-0.01 0,0.0917 0,0.28572 0,0.28228 -0.0429,0.41783 0.2143,0.64289 0.16905,0.14793 0.4009,0.21098 0.57146,0.35717 0.16183,0.13871 0.54733,0.45179 0.64289,0.64289 0.0337,0.0673 0.0182,0.16105 0.0714,0.21429 0.0532,0.0532 0.15164,0.0297 0.2143,0.0714 0.26653,0.1777 0.44003,0.4664 0.64289,0.71433 0.1877,0.0644 0.18722,0.29726 0.28572,0.42859 -0.17626,0.21626 0.1943,0.12287 0.2143,0.14286 0.0357,0.0357 -0.0357,0.17858 0,0.2143 0.0376,0.0376 0.11333,0.0271 0.14286,0.0714 0.20536,0.30803 0.22188,0.65047 0.50003,0.92862 0.0376,0.0377 0.10521,0.0338 0.14286,0.0714 0.0505,0.0505 -0.014,0.14426 0,0.2143 0.0344,0.17191 0.14741,0.50912 0.2143,0.64289 0.0286,0.0572 -0.0286,0.15715 0,0.2143 0.0885,0.17706 0.25916,0.30402 0.35716,0.50002 0.0337,0.0674 0.0378,0.14695 0.0714,0.2143 0.14864,0.29729 -0.005,-0.0764 0.14287,0.0714 0.0751,0.0751 0.0484,1.07876 0.0714,1.28578 0.17593,1.58336 0.19571,3.34949 -0.71432,4.71453 -0.23502,0.35252 0.20724,-0.4487 -0.28573,0.14286 -0.0821,0.0985 -0.0793,0.24583 -0.14286,0.35716 -0.17914,0.31349 -1.04914,1.10592 -1.42865,1.21435 -0.60467,0.17276 -1.24293,0.29208 -1.85724,0.4286 -0.1548,0.0344 -0.35034,-0.0499 -0.50002,0 -0.10102,0.0337 -0.18334,0.11361 -0.28573,0.14286 -0.13737,0.0393 -0.28573,0 -0.4286,0 -0.68222,0 -0.81534,0.0163 -1.50007,-0.35716 -0.0873,-0.0476 -0.13493,-0.15477 -0.2143,-0.2143 -0.36083,-0.27062 -0.39456,-0.4847 -0.64289,-0.85718 -0.0476,-0.0714 -0.0822,-0.15359 -0.14286,-0.2143 -0.0168,-0.0168 -0.0476,0 -0.0714,0 -0.0476,-0.0476 -0.10821,-0.0851 -0.14286,-0.14287 -0.0544,-0.0907 -0.0878,-0.27453 -0.14286,-0.35716 -0.0374,-0.056 -0.11275,-0.0826 -0.14287,-0.14286 -0.0516,-0.10318 -0.0198,-0.32542 -0.0714,-0.42859 -0.0106,-0.0213 -0.0608,0.0213 -0.0714,0 -0.0213,-0.0426 0.0116,-0.0967 0,-0.14287 0.043,-0.12929 -0.11572,-0.13285 -0.14287,-0.21429 -0.005,-0.016 -0.12603,-1.15975 -0.0714,-1.21435 0.0168,-0.0168 0.0608,0.0213 0.0714,0 0.0131,-0.0262 -0.0301,-0.25568 0,-0.28573 0.0168,-0.0168 0.0546,0.0168 0.0714,0 0.0458,-0.0458 0,-0.42867 0,-0.50003 0,-0.49505 -0.0666,-1.13867 0,-1.57151 0.0861,-0.55939 0.28573,-1.09529 0.4286,-1.64294 z"
       transform="matrix(0.67561881,0.4708183,-0.4702385,0.6760633,69.907328,-20.338079)" />
  </g>
</svg>
