<?xml version="1.0" encoding="UTF-8" standalone="no"?>
<!-- Created with Inkscape (http://www.inkscape.org/) -->

<svg
   width="49.297962mm"
   height="82.432655mm"
   viewBox="0 0 49.297962 82.432655"
   version="1.1"
   id="svg1"
   inkscape:version="1.4.3 (0d15f75, 2025-12-25)"
   sodipodi:docname="neutraal.svg"
   xmlns:inkscape="http://www.inkscape.org/namespaces/inkscape"
   xmlns:sodipodi="http://sodipodi.sourceforge.net/DTD/sodipodi-0.dtd"
   xmlns:xlink="http://www.w3.org/1999/xlink"
   xmlns="http://www.w3.org/2000/svg"
   xmlns:svg="http://www.w3.org/2000/svg">
  <sodipodi:namedview
     id="namedview1"
     pagecolor="#ffffff"
     bordercolor="#000000"
     borderopacity="0.25"
     inkscape:showpageshadow="2"
     inkscape:pageopacity="0.0"
     inkscape:pagecheckerboard="0"
     inkscape:deskcolor="#d1d1d1"
     inkscape:document-units="mm"
     inkscape:zoom="1.3095539"
     inkscape:cx="80.561787"
     inkscape:cy="200.06813"
     inkscape:window-width="1920"
     inkscape:window-height="974"
     inkscape:window-x="-11"
     inkscape:window-y="-11"
     inkscape:window-maximized="1"
     inkscape:current-layer="layer1" />
  <defs
     id="defs1" />
  <g
     inkscape:label="Kiht 1"
     inkscape:groupmode="layer"
     id="layer1"
     transform="translate(-82.432661,-98.999981)">
    <ellipse
       style="fill:#ffd42a;fill-rule:evenodd;stroke:#ffd42a;stroke-width:0;stroke-miterlimit:2.1"
       id="path1"
       cx="107.08164"
       cy="140.21631"
       rx="24.648981"
       ry="41.216328" />
    <ellipse
       style="fill:#000000;fill-rule:evenodd;stroke:#000000;stroke-width:0;stroke-miterlimit:2.1"
       id="path3"
       cx="118.8"
       cy="123.2449"
       rx="6.0612245"
       ry="6.4653058" />
    <use
       x="0"
       y="0"
       xlink:href="#path3"
       id="use3"
       transform="translate(-23.812509)" />
    <path
       style="fill:none;fill-rule:evenodd;stroke:#000000;stroke-width:3.49999;stroke-miterlimit:2.1;stroke-dasharray:none"
       d="m 94.353069,160.21835 c 3.001271,-0.22909 6.078551,-0.36945 9.091841,-0.20204 0.40902,0.0227 0.80427,0.16495 1.21224,0.20204 1.00206,0.0911 2.02726,-0.0772 3.03061,0 0.54137,0.0416 1.07496,0.16039 1.61633,0.20204 1.19482,0.0919 2.43815,0 3.63673,0 1.81837,0 3.63674,0 5.45511,0 0.81427,0 1.82028,0.13437 2.62653,0 1.26152,-0.21026 2.34482,-0.20204 3.63673,-0.20204"
       id="path4" />
  </g>
</svg>
