<?xml version="1.0" encoding="UTF-8" standalone="no"?>
<!-- Created with Inkscape (http://www.inkscape.org/) -->

<svg
   width="49.297962mm"
   height="82.432655mm"
   viewBox="0 0 49.297962 82.432655"
   version="1.1"
   id="svg1"
   inkscape:version="1.4.3 (0d15f75, 2025-12-25)"
   sodipodi:docname="rongaga.svg"
   xmlns:inkscape="http://www.inkscape.org/namespaces/inkscape"
   xmlns:sodipodi="http://sodipodi.sourceforge.net/DTD/sodipodi-0.dtd"
   xmlns:xlink="http://www.w3.org/1999/xlink"
   xmlns="http://www.w3.org/2000/svg"
   xmlns:svg="http://www.w3.org/2000/svg">
  <sodipodi:namedview
     id="namedview1"
     pagecolor="#ffffff"
     bordercolor="#000000"
     borderopacity="0.25"
     inkscape:showpageshadow="2"
     inkscape:pageopacity="0.0"
     inkscape:pagecheckerboard="0"
     inkscape:deskcolor="#d1d1d1"
     inkscape:document-units="mm"
     inkscape:zoom="1.3095539"
     inkscape:cx="80.561785"
     inkscape:cy="200.44994"
     inkscape:window-width="1920"
     inkscape:window-height="974"
     inkscape:window-x="-11"
     inkscape:window-y="-11"
     inkscape:window-maximized="1"
     inkscape:current-layer="layer1" />
  <defs
     id="defs1" />
  <g
     inkscape:label="Kiht 1"
     inkscape:groupmode="layer"
     id="layer1"
     transform="translate(-82.432661,-98.999981)">
    <ellipse
       style="fill:#ffd42a;fill-rule:evenodd;stroke:#ffd42a;stroke-width:0;stroke-miterlimit:2.1"
       id="path1"
       cx="107.08164"
       cy="140.21631"
       rx="24.648981"
       ry="41.216328" />
    <ellipse
       style="fill:#000000;fill-rule:evenodd;stroke:#000000;stroke-width:0;stroke-miterlimit:2.1"
       id="path3"
       cx="118.8"
       cy="123.2449"
       rx="6.0612245"
       ry="6.4653058" />
    <use
       x="0"
       y="0"
       xlink:href="#path3"
       id="use3"
       transform="translate(-23.812509)" />
    <path
       style="fill:none;fill-rule:evenodd;stroke:#000000;stroke-width:3.5;stroke-miterlimit:2.1;stroke-dasharray:none"
       d="m 91.313762,148.8993 c -0.503726,4.75698 2.091302,7.30961 4.602278,10.48906 1.032623,1.30752 1.80213,2.90344 2.897854,4.13548 0.383609,1.83809 2.049166,1.42519 2.948826,2.3354 0.53944,0.5458 0.78926,1.55532 1.45529,1.84272 0.61136,0.26384 4.77625,0.33067 5.27194,0.14929 0.82021,-0.30013 1.70499,-1.11074 2.67419,-1.27541 0.89398,-0.15188 1.43531,0.36986 2.27216,-0.38604 0.36296,-0.32786 0.57526,-0.85071 0.79135,-1.32873 0.0599,-0.13258 -0.10139,-0.38611 0.0128,-0.45002 0.22835,-0.12781 0.5021,0.0142 0.75314,0.0213 0.25529,-0.14289 0.52708,-0.24924 0.76588,-0.42869 0.74473,0.066 0.19687,-0.65781 0.40205,-0.88937 0.70796,-0.79898 1.72572,-1.18308 2.32311,-2.18612 0.10614,-0.17819 1.15379,-2.17336 1.19343,-2.2181 0.0918,-0.10352 0.26976,0.0909 0.37657,0.0106 0.46078,-0.34627 1.44907,-1.4897 1.56998,-2.20744 1.06669,-6.33265 -1.14343,2.28935 0.84233,-3.12882 0.40782,-1.11277 0.0922,-3.25558 0.12743,-4.5002"
       id="path4" />
    <ellipse
       style="fill:none;fill-rule:evenodd;stroke:#000080;stroke-width:2.98277;stroke-miterlimit:2.1"
       id="path2"
       cx="107.08164"
       cy="106.2975"
       rx="21.674938"
       ry="5.208612" />
  </g>
</svg>
