<?xml version="1.0" encoding="UTF-8" standalone="no"?>
<!-- Created with Inkscape (http://www.inkscape.org/) -->

<svg
   width="49.297962mm"
   height="82.432655mm"
   viewBox="0 0 49.297962 82.432655"
   version="1.1"
   id="svg1"
   inkscape:version="1.4.3 (0d15f75, 2025-12-25)"
   sodipodi:docname="suurnaeratus.svg"
   xmlns:inkscape="http://www.inkscape.org/namespaces/inkscape"
   xmlns:sodipodi="http://sodipodi.sourceforge.net/DTD/sodipodi-0.dtd"
   xmlns:xlink="http://www.w3.org/1999/xlink"
   xmlns="http://www.w3.org/2000/svg"
   xmlns:svg="http://www.w3.org/2000/svg">
  <sodipodi:namedview
     id="namedview1"
     pagecolor="#ffffff"
     bordercolor="#000000"
     borderopacity="0.25"
     inkscape:showpageshadow="2"
     inkscape:pageopacity="0.0"
     inkscape:pagecheckerboard="0"
     inkscape:deskcolor="#d1d1d1"
     inkscape:document-units="mm"
     inkscape:zoom="0.057874652"
     inkscape:cx="77.754248"
     inkscape:cy="198.7053"
     inkscape:window-width="1920"
     inkscape:window-height="974"
     inkscape:window-x="-11"
     inkscape:window-y="-11"
     inkscape:window-maximized="1"
     inkscape:current-layer="layer1" />
  <defs
     id="defs1" />
  <g
     inkscape:label="Kiht 1"
     inkscape:groupmode="layer"
     id="layer1"
     transform="translate(-82.432661,-98.999981)">
    <ellipse
       style="fill:#ffd42a;fill-rule:evenodd;stroke:#ffd42a;stroke-width:0;stroke-miterlimit:2.1"
       id="path1"
       cx="107.08164"
       cy="140.21631"
       rx="24.648981"
       ry="41.216328" />
    <ellipse
       style="fill:#000000;fill-rule:evenodd;stroke:#000000;stroke-width:0;stroke-miterlimit:2.1"
       id="path3"
       cx="118.8"
       cy="123.2449"
       rx="6.0612245"
       ry="6.4653058" />
    <use
       x="0"
       y="0"
       xlink:href="#path3"
       id="use3"
       transform="translate(-23.812509)" />
    <path
       style="fill:#000000;fill-rule:evenodd;stroke:#000000;stroke-width:0;stroke-miterlimit:2.1"
       d="m 90.51179,151.23907 c -0.368874,4.76933 2.297367,7.24749 4.897333,10.35459 1.069211,1.27777 1.883589,2.85127 3.013742,4.0518 0.435486,1.82649 2.088685,1.36661 3.013745,2.251 0.55468,0.53031 0.83297,1.53235 1.50687,1.80079 0.61859,0.24643 4.7837,0.19534 5.27405,0 0.81139,-0.32322 1.67287,-1.15856 2.63702,-1.35059 0.88932,-0.17713 1.44521,0.32908 2.26031,-0.4502 0.35355,-0.338 0.55096,-0.86665 0.75343,-1.3506 0.0561,-0.13422 -0.11231,-0.38308 0,-0.4502 0.22464,-0.13422 0.5023,0 0.75344,0 0.25115,-0.15006 0.51981,-0.26406 0.75344,-0.4502 0.7463,0.0449 0.17817,-0.66311 0.37671,-0.90039 0.68507,-0.8187 1.69155,-1.23145 2.26031,-2.251 0.10105,-0.18113 1.0918,-2.20516 1.13016,-2.251 0.0888,-0.10607 0.27223,0.0832 0.37672,0 0.4508,-0.35917 1.40633,-1.53011 1.50687,-2.251 0.88702,-6.3603 -1.07817,2.32081 0.75343,-3.1514 0.37617,-1.12387 0,-3.25688 0,-4.50201"
       id="path4" />
  </g>
</svg>
